<svg id="basic_heart_outline" data-name="basic / heart_outline" xmlns="http://www.w3.org/2000/svg" xmlns:xlink="http://www.w3.org/1999/xlink" width="16" height="16" viewBox="0 0 16 16">
  <defs>
    <clipPath id="clip-path">
      <rect id="basic_heart_outline_Background_Mask_" data-name="basic / heart_outline (Background/Mask)" width="16" height="16" fill="none"/>
    </clipPath>
  </defs>
  <g id="basic_heart_outline-2" data-name="basic / heart_outline">
    <rect id="basic_heart_outline_Background_Mask_2" data-name="basic / heart_outline (Background/Mask)" width="16" height="16" fill="none"/>
    <g id="basic_heart_outline-3" data-name="basic / heart_outline" clip-path="url(#clip-path)">
      <path id="basic_heart_outline-4" data-name="basic / heart_outline" d="M6.667,12h0c-.43-.381-.916-.778-1.43-1.2l-.006,0C3.42,9.32,1.368,7.645.463,5.639A4.948,4.948,0,0,1,0,3.6,3.594,3.594,0,0,1,3.667,0,4.105,4.105,0,0,1,5.885.655a3.731,3.731,0,0,1,.779.676A3.853,3.853,0,0,1,7.448.655,4.1,4.1,0,0,1,9.667,0a3.594,3.594,0,0,1,3.667,3.6,4.948,4.948,0,0,1-.463,2.042C11.965,7.645,9.914,9.32,8.1,10.8L8.1,10.8c-.515.42-1,.816-1.43,1.2Zm-3-10.667A2.357,2.357,0,0,0,2,1.995a2.228,2.228,0,0,0-.664,1.6,3.635,3.635,0,0,0,.341,1.486A8.21,8.21,0,0,0,3.379,7.4c.661.67,1.421,1.315,2.078,1.858.182.15.367.3.553.453l.117.1c.178.146.362.3.54.444l.009-.008,0,0,0,0,.006,0h0l0,0,0,0,.012-.01,0,0,.027-.022h0l0,0,.007-.006,0,0h0l0,0,.006-.005L7.2,9.8l.116-.1c.187-.153.373-.3.554-.454C8.533,8.712,9.293,8.067,9.954,7.4a8.2,8.2,0,0,0,1.7-2.314A3.626,3.626,0,0,0,12,3.6a2.228,2.228,0,0,0-.664-1.6,2.357,2.357,0,0,0-1.67-.662,2.659,2.659,0,0,0-1.993.874L6.667,3.367,5.66,2.207A2.659,2.659,0,0,0,3.667,1.333Z" transform="translate(1.333 2)" fill="#1a2b43"/>
    </g>
  </g>
</svg>
