<svg width="0" height="0" class="hidden">
  <symbol xmlns="http://www.w3.org/2000/svg" viewBox="0 0 16 16" id="heart">
    <defs>
      <clipPath id="a">
        <path fill="none" d="M0 0h16v16H0z"></path>
      </clipPath>
    </defs>
    <path fill="none" d="M0 0h16v16H0z"></path>
    <g clip-path="url(#a)">
      <path d="M8 14c-.43-.381-.916-.778-1.43-1.2h-.006c-1.811-1.48-3.863-3.155-4.768-5.161A4.948 4.948 0 011.333 5.6 3.594 3.594 0 015 2a4.105 4.105 0 012.218.655 3.731 3.731 0 01.779.676 3.853 3.853 0 01.784-.676A4.1 4.1 0 0111 2a3.594 3.594 0 013.667 3.6 4.948 4.948 0 01-.463 2.042c-.906 2.003-2.957 3.678-4.771 5.158-.515.42-1 .816-1.43 1.2zM5 3.333a2.357 2.357 0 00-1.667.662 2.228 2.228 0 00-.664 1.6 3.635 3.635 0 00.341 1.486A8.21 8.21 0 004.712 9.4c.661.67 1.421 1.315 2.078 1.858l.553.453.117.1c.178.146.362.3.54.444l.009-.008h.006l.012-.01.027-.022.007-.006.006-.005.466-.404.116-.1c.187-.153.373-.3.554-.454.663-.534 1.423-1.179 2.084-1.846a8.2 8.2 0 001.7-2.314 3.626 3.626 0 00.346-1.486 2.228 2.228 0 00-.664-1.6 2.357 2.357 0 00-1.67-.662 2.659 2.659 0 00-1.993.874L8 5.367l-1.007-1.16A2.659 2.659 0 005 3.333z" fill="#1a2b43"></path>
    </g>
  </symbol>
  <symbol xmlns="http://www.w3.org/2000/svg" viewBox="0 0 18.008 18.036" id="instagram">
    <path d="M9 18.036c-2.46 0-2.75-.013-3.71-.055a6.584 6.584 0 01-2.185-.45A4.619 4.619 0 01.475 14.9a6.591 6.591 0 01-.419-2.187C0 11.755 0 11.441 0 9c0-2.467.013-2.755.056-3.71a6.59 6.59 0 01.419-2.184A4.61 4.61 0 013.108.474a6.533 6.533 0 012.184-.42C6.247 0 6.561 0 9 0c2.48 0 2.765.013 3.71.054a6.574 6.574 0 012.19.42 4.615 4.615 0 012.633 2.632 6.571 6.571 0 01.421 2.217c.056.958.056 1.271.056 3.711s-.014 2.76-.056 3.707a6.6 6.6 0 01-.42 2.189 4.624 4.624 0 01-2.634 2.632 6.612 6.612 0 01-2.186.419c-.955.055-1.268.055-3.714.055zM8.966 1.583c-2.446 0-2.7.012-3.655.055a4.989 4.989 0 00-1.669.311 2.989 2.989 0 00-1.719 1.712 5.015 5.015 0 00-.311 1.687c-.053.969-.053 1.223-.053 3.652 0 2.4.009 2.691.053 3.654a5.067 5.067 0 00.311 1.67 2.991 2.991 0 001.719 1.711 4.921 4.921 0 001.669.311c.968.056 1.223.056 3.655.056 2.453 0 2.707-.012 3.654-.056a4.964 4.964 0 001.67-.311A3 3 0 0016 14.326a5.041 5.041 0 00.311-1.688h.011c.043-.956.043-1.211.043-3.654s-.011-2.7-.054-3.655A5.056 5.056 0 0016 3.661a3 3 0 00-1.71-1.712 4.943 4.943 0 00-1.67-.311c-.967-.055-1.22-.055-3.654-.055zM9 13.619a4.623 4.623 0 114.62-4.624A4.629 4.629 0 019 13.619zm0-7.626a3 3 0 103 3 3.007 3.007 0 00-3-3zm4.8-.713a1.078 1.078 0 111.082-1.08A1.079 1.079 0 0113.8 5.28z"></path>
  </symbol>
  <symbol xmlns="http://www.w3.org/2000/svg" viewBox="0 0 20.918 17" id="twitter">
    <path d="M18.454 2.688A4.3 4.3 0 0020.341.314a8.591 8.591 0 01-2.725 1.041A4.3 4.3 0 0010.3 5.27 12.184 12.184 0 011.456.786a4.3 4.3 0 001.328 5.73 4.276 4.276 0 01-1.943-.538v.054a4.294 4.294 0 003.443 4.208 4.3 4.3 0 01-1.938.074 4.3 4.3 0 004.009 2.98 8.61 8.61 0 01-5.33 1.837A8.715 8.715 0 010 15.072 12.147 12.147 0 006.579 17a12.127 12.127 0 0012.21-12.211q0-.279-.013-.555a8.719 8.719 0 002.142-2.222 8.579 8.579 0 01-2.464.676z"></path>
  </symbol>
  <symbol xmlns="http://www.w3.org/2000/svg" viewBox="0 0 24 24" id="arrow_left">
    <defs>
      <clipPath id="a">
        <path fill="none" d="M0 0h24v24H0z"></path>
      </clipPath>
    </defs>
    <path fill="none" d="M0 0h24v24H0z"></path>
    <g clip-path="url(#a)">
      <path d="M7.83 11l3.58-3.59L10 6l-6 6 6 6 1.41-1.41L7.83 13H20v-2z"></path>
    </g>
  </symbol>
  <symbol xmlns="http://www.w3.org/2000/svg" viewBox="0 0 20 7" id="arrow_long_right">
    <path d="M16.5 7L20 3.5 16.5 0l-.707.707L18.086 3H0v1h18.086l-2.293 2.293z"></path>
  </symbol>
  <symbol xmlns="http://www.w3.org/2000/svg" viewBox="0 0 16 12" id="arrow_right">
    <path d="M12.17 7l-3.58 3.59L10 12l6-6-6-6-1.41 1.41L12.17 5H0v2z"></path>
  </symbol>
  <symbol xmlns="http://www.w3.org/2000/svg" viewBox="0 0 16 16" id="chevron_down">
    <defs>
      <clipPath id="a">
        <path fill="rgba(0,0,0,0)" d="M0 0h16v16H0z"></path>
      </clipPath>
    </defs>
    <path fill="rgba(0,0,0,0)" d="M0 0h16v16H0z"></path>
    <g clip-path="url(#a)">
      <path d="M2.343 5.643L8 11.3l5.657-5.657-.943-.943L8 9.414 3.286 4.7z"></path>
    </g>
  </symbol>
  <symbol xmlns="http://www.w3.org/2000/svg" viewBox="0 0 18 18" id="comment">
    <path d="M0 18V2a2 2 0 012-2h14a2 2 0 012 2v10a2 2 0 01-2 2H6a1.989 1.989 0 00-1.2.4L0 18zM2 2v12l2.134-1.6a1.984 1.984 0 011.2-.4H16V2z" fill="#1a2b43"></path>
  </symbol>
  <symbol xmlns="http://www.w3.org/2000/svg" viewBox="0 0 19.998 19.878" id="facebook">
    <path d="M0 10a10.005 10.005 0 008.437 9.879V12.89H5.9V10h2.54V7.8a3.528 3.528 0 013.773-3.9 15.438 15.438 0 012.24.2v2.459h-1.264a1.446 1.446 0 00-1.628 1.563V10h2.771l-.443 2.891h-2.328v6.988A10 10 0 100 10z"></path>
  </symbol>
  <symbol xmlns="http://www.w3.org/2000/svg" viewBox="0 0 17.463 17.868" id="google">
    <path d="M8.934 7.309v3.451h4.792c-.446 2.193-2.313 3.453-4.792 3.453a5.28 5.28 0 010-10.559 5.166 5.166 0 013.29 1.178l2.6-2.6a8.929 8.929 0 10-5.89 15.635c4.467 0 8.529-3.249 8.529-8.934a7.466 7.466 0 00-.2-1.625z"></path>
  </symbol>
</svg>
<svg class="nb_i">
  <use xlink:href="#heart"></use>
</svg><svg class="nb_i">
  <use xlink:href="#instagram"></use>
</svg><svg class="nb_i">
  <use xlink:href="#twitter"></use>
</svg><svg class="nb_i">
  <use xlink:href="#arrow_left"></use>
</svg><svg class="nb_i">
  <use xlink:href="#arrow_long_right"></use>
</svg><svg class="nb_i">
  <use xlink:href="#arrow_right"></use>
</svg><svg class="nb_i">
  <use xlink:href="#chevron_down"></use>
</svg><svg class="nb_i">
  <use xlink:href="#comment"></use>
</svg><svg class="nb_i">
  <use xlink:href="#facebook"></use>
</svg><svg class="nb_i">
  <use xlink:href="#google"></use>
</svg>