<svg xmlns="http://www.w3.org/2000/svg" viewBox="0 0 1109 471.76"><defs><style>.cls-1{fill:#fff;}</style></defs><g id="Layer_2" data-name="Layer 2"><g id="Layer_1-2" data-name="Layer 1"><path class="cls-1" d="M176.23,307.5v-1.67c33.39-4.59,58.86-31.51,58.86-65.32,0-46.55-35.69-75.14-95-75.14H.08V466.54h143.8c64.49,0,105.19-34,105.19-86.82C249.07,339.64,216.93,309.38,176.23,307.5ZM76.68,219.63h43.2c25.67,0,40.7,12.53,40.7,33.61,0,21.7-16.7,34.85-44.46,34.85H76.68Zm45.49,192.64H76.68V334.63h45.08c31.51,0,49.46,13.78,49.46,38.41C171.22,398.5,153.69,412.27,122.17,412.27Z"/><polygon class="cls-1" points="358.02 165.37 281.43 165.37 281.43 466.54 482.62 466.54 482.62 404.76 358.02 404.76 358.02 165.37"/><path class="cls-1" d="M645.63,160.15c-91.21,0-148.81,59.9-148.81,155.91s57.39,155.7,148.81,155.7c91.2,0,148.6-59.69,148.6-155.7S736.83,160.15,645.63,160.15Zm0,249.41c-43,0-70.75-36.31-70.75-93.5,0-57.4,28-93.71,70.75-93.71s70.75,36.31,70.75,93.71C716.38,373.25,688.41,409.56,645.63,409.56Z"/><path class="cls-1" d="M979.78,354.88h55.1l-.21,4.59c-2.09,30.26-26.3,50.72-61,50.72-44,0-72.42-36.11-72.42-95.8,0-58.65,25.67-92.67,69.08-92.67,29.43,0,52,16.28,59.49,43h75.76c-7.72-61.36-62.41-104.57-135.45-104.57-91,0-146.93,57.61-146.93,155.28,0,98.93,55.93,156.33,148.8,156.33,85.78,0,136.71-50.3,136.71-132.53v-37h-129Z"/><path class="cls-1" d="M12.74,105.27c0,18.39,9.63,25.86,34,25.86A68.72,68.72,0,0,0,60.07,130V108.36a31,31,0,0,1-6,.43c-7.31,0-10.75-3.26-10.75-9.71V59.81H60.15V37.38H43.29v-21H12.74v21H0V59.81H12.74Z"/><path class="cls-1" d="M103.79,78.2c0-10.48,5.76-17.79,16-17.79,10.06,0,15.31,6.53,15.31,17.1V131h30.47V70.9c0-22.09-11.62-35.32-32.53-35.32-14.29,0-24.53,6.87-29.35,19.42h-.6V7H73.24V131h30.55Z"/><path class="cls-1" d="M223.67,35.15C195,35.15,177,54.4,177,84.64s17.81,48.56,47.68,48.56c24.52,0,41.73-12.46,44.66-31.8H241.83c-2.15,6.36-8.52,10.23-16.69,10.23-11,0-18.51-7.74-18.51-18.91V90.83h63.26V82.24C269.89,53.62,251.9,35.15,223.67,35.15ZM207.06,73.47c.78-9.71,7.75-16.67,17.13-16.67,9.64,0,16.44,6.7,16.95,16.67Z"/><path class="cls-1" d="M346.4,78c0-10.31,6-17.62,15.75-17.62,10,0,15.06,6.36,15.06,17V131h30.46V70.9c0-22.26-11.62-35.32-32.53-35.32-14.37,0-24.18,7-29,19.42h-.6V37.38H315.85V131H346.4Z"/><path class="cls-1" d="M467.06,133.2c29.52,0,47.93-17.79,47.93-49.07,0-30.68-18.67-49-47.93-49-29.09,0-47.93,18.39-47.93,49C419.13,115.32,437.54,133.2,467.06,133.2Zm0-75.71c10.41,0,17,9.88,17,26.72,0,17.11-6.63,26.64-17,26.64s-16.95-9.53-16.95-26.64C450.11,67.37,456.73,57.49,467.06,57.49Z"/><path class="cls-1" d="M534.45,105.27c0,18.39,9.64,25.86,34,25.86A68.72,68.72,0,0,0,581.78,130V108.36a30.9,30.9,0,0,1-6,.43c-7.32,0-10.76-3.26-10.76-9.71V59.81h16.87V37.38H565v-21H534.45v21H521.71V59.81h12.74Z"/><path class="cls-1" d="M638.93,133.2c29.52,0,47.93-17.79,47.93-49.07,0-30.68-18.67-49-47.93-49-29.09,0-47.94,18.39-47.94,49C591,115.32,609.41,133.2,638.93,133.2Zm0-75.71c10.41,0,17,9.88,17,26.72,0,17.11-6.63,26.64-17,26.64s-17-9.53-17-26.64C622,67.37,628.6,57.49,638.93,57.49Z"/><path class="cls-1" d="M729.21,81.72c0-13.06,7-20.28,19.79-20.28a27.38,27.38,0,0,1,9.73,1.72V37.21A22.33,22.33,0,0,0,751,36c-11,0-18.59,6.44-22,19.07h-.6V37.38H698.66V131h30.55Z"/><rect class="cls-1" x="768.2" y="37.38" width="30.46" height="93.58"/><path class="cls-1" d="M783.43,0c-8.86,0-15.66,6.45-15.66,14.87s6.8,15,15.66,15S799,23.29,799,14.87,792.29,0,783.43,0Z"/><path class="cls-1" d="M858.65,133.2c29.51,0,47.93-17.79,47.93-49.07,0-30.68-18.67-49-47.93-49-29.09,0-47.94,18.39-47.94,49C810.71,115.32,829.13,133.2,858.65,133.2Zm0-75.71c10.41,0,17,9.88,17,26.72,0,17.11-6.63,26.64-17,26.64s-17-9.53-17-26.64C841.69,67.37,848.32,57.49,858.65,57.49Z"/><path class="cls-1" d="M952.28,132.77c14.12,0,23.07-7.22,27.28-19.51h.61V131h29.6V37.38H979.3V90.32c0,10.57-6,17.61-15.49,17.61s-15.31-5.93-15.31-17V37.38H918V97.53C918,119.62,932.15,132.77,952.28,132.77Z"/><path class="cls-1" d="M1065.71,112.66c-9,0-14.54-4.13-15.4-11.09h-29.6c1.29,19.17,17.12,31.63,44.49,31.63,26.16,0,43.8-12.46,43.8-31.88,0-14.18-8-21.83-26.68-25.78l-19.62-4c-7-1.46-10.5-4.12-10.5-7.82,0-4.81,4.82-8.08,12.31-8.08,8.43,0,13.77,4.22,14,10.92h27.88c-.17-19.34-16.09-31.45-41.65-31.45-25.82,0-41.83,11.86-41.83,30.59,0,14.35,9.64,24,28,27.84l17.73,3.7c7.31,1.54,10.16,3.69,10.16,7.47C1078.8,109.74,1073.8,112.66,1065.71,112.66Z"/></g></g></svg>